<svg width="72" height="72" viewBox="0 0 72 72" fill="none" xmlns="http://www.w3.org/2000/svg">
<path d="M1 19.2C1 15.8232 1.00078 13.3507 1.16017 11.3999C1.31861 9.46067 1.62877 8.12511 2.19893 7.0061C3.25354 4.93632 4.93632 3.25354 7.0061 2.19893C8.12511 1.62877 9.46067 1.31861 11.3999 1.16017C13.3507 1.00078 15.8232 1 19.2 1H52.8C56.1768 1 58.6493 1.00078 60.6001 1.16017C62.5393 1.31861 63.8749 1.62877 64.9939 2.19893C67.0637 3.25354 68.7465 4.93632 69.8011 7.0061C70.3712 8.12511 70.6814 9.46067 70.8398 11.3999C70.9992 13.3507 71 15.8232 71 19.2V52.8C71 56.1768 70.9992 58.6493 70.8398 60.6001C70.6814 62.5393 70.3712 63.8749 69.8011 64.9939C68.7465 67.0637 67.0637 68.7465 64.9939 69.8011C63.8749 70.3712 62.5393 70.6814 60.6001 70.8398C58.6493 70.9992 56.1768 71 52.8 71H19.2C15.8232 71 13.3507 70.9992 11.3999 70.8398C9.46067 70.6814 8.12511 70.3712 7.0061 69.8011C4.93632 68.7465 3.25354 67.0637 2.19893 64.9939L1.30792 65.4479L2.19893 64.9939C1.62877 63.8749 1.31861 62.5393 1.16017 60.6001C1.00078 58.6493 1 56.1768 1 52.8V19.2Z" stroke="#4CAF50" stroke-opacity="0.4" stroke-width="2"/>
<path fill-rule="evenodd" clip-rule="evenodd" d="M22.6508 36C22.6509 35.1322 23.3544 34.4287 24.2221 34.4287L34.5719 34.429L34.5716 24.0792C34.5716 23.2115 35.2751 22.508 36.1429 22.5079C37.0106 22.5079 37.7141 23.2114 37.7142 24.0792L37.7145 34.4291L48.0634 34.4294C48.9312 34.4294 49.6347 35.1329 49.6347 36.0007C49.6346 36.8685 48.9311 37.572 48.0633 37.5719L37.7145 37.5716L37.7148 47.9204C37.7149 48.7882 37.0114 49.4917 36.1436 49.4917C35.2758 49.4918 34.5723 48.7883 34.5723 47.9205L34.572 37.5716L24.2221 37.5713C23.3543 37.5712 22.6508 36.8677 22.6508 36Z" fill="#4CAF50"/>
</svg>
